<?xml version="1.0" standalone="no"?>
<!DOCTYPE svg PUBLIC "-//W3C//DTD SVG 20010904//EN"
 "http://www.w3.org/TR/2001/REC-SVG-20010904/DTD/svg10.dtd">
<svg version="1.0" xmlns="http://www.w3.org/2000/svg"
 width="320.000000pt" height="320.000000pt" viewBox="0 0 320.000000 320.000000"
 preserveAspectRatio="xMidYMid meet">
<metadata>
Created by potrace 1.11, written by Peter Selinger 2001-2013
</metadata>
<g transform="translate(0.000000,320.000000) scale(0.100000,-0.100000)"
fill="#000000" stroke="none">
<path d="M660 2989 c-101 -41 -134 -178 -59 -248 42 -39 119 -20 140 35 11 31
-7 64 -36 64 -29 0 -41 -11 -49 -43 -7 -32 -23 -27 -37 10 -21 56 33 133 93
133 69 0 116 -52 119 -132 5 -134 -83 -248 -253 -328 -72 -34 -50 -41 42 -14
115 34 212 119 267 232 19 40 45 80 58 88 27 17 74 21 128 10 35 -7 37 -6 29
11 -31 58 -91 70 -166 33 -26 -12 -50 -20 -53 -16 -4 3 -4 6 0 6 14 0 -27 91
-54 120 -47 49 -109 63 -169 39z"/>
<path d="M2442 2979 c-36 -24 -82 -94 -82 -127 0 -29 -15 -36 -42 -18 -13 8
-42 19 -65 24 -50 11 -94 -6 -112 -44 -11 -25 -11 -26 21 -18 49 10 109 6 134
-11 12 -8 38 -47 57 -87 21 -43 55 -93 84 -121 52 -53 165 -113 227 -122 21
-3 42 -8 47 -11 5 -3 9 -3 9 0 0 3 -24 18 -52 32 -173 87 -258 189 -260 311
-2 100 52 162 129 150 43 -7 62 -23 80 -64 11 -29 11 -38 -3 -70 l-17 -38 -15
38 c-10 26 -21 37 -36 37 -31 0 -48 -15 -51 -43 -4 -33 33 -68 79 -74 45 -6
69 8 90 51 49 103 -19 215 -136 223 -42 3 -60 -1 -86 -18z"/>
<path d="M1558 2975 c-2 -1 -38 -5 -81 -9 -86 -7 -184 -25 -290 -51 -74 -19
-101 -45 -74 -72 12 -12 25 -12 98 6 179 42 256 52 416 56 139 3 261 -14 370
-50 89 -30 110 -31 118 -5 9 28 1 36 -58 58 -95 36 -246 62 -374 66 -68 1
-124 2 -125 1z"/>
<path d="M1459 2805 c-2 -2 -32 -6 -66 -9 -135 -13 -256 -42 -342 -84 -57 -27
-151 -113 -151 -136 0 -23 -78 -93 -143 -129 -66 -37 -175 -80 -244 -97 -39
-10 -43 -14 -44 -43 0 -50 3 -265 6 -337 6 -169 17 -366 20 -380 2 -8 7 -60
10 -115 4 -55 8 -106 10 -115 1 -8 6 -41 9 -73 12 -97 33 -209 51 -262 113
-330 737 -860 1031 -874 261 -12 871 473 1035 824 30 64 62 198 74 310 3 33 8
78 10 100 13 118 16 148 30 390 2 33 7 173 11 312 l7 252 -29 6 c-65 14 -183
59 -253 96 -80 43 -128 86 -155 136 -52 102 -211 183 -411 209 -27 3 -59 8
-70 11 -24 6 -391 13 -396 8z m399 -120 c17 -3 44 -7 60 -9 15 -3 38 -7 52
-10 14 -3 39 -8 55 -12 41 -9 124 -44 158 -67 15 -10 44 -44 64 -75 41 -66 81
-102 165 -154 52 -32 94 -51 221 -98 l29 -10 -7 -203 c-10 -299 -21 -504 -30
-567 -2 -14 -7 -59 -10 -100 -4 -41 -9 -84 -11 -95 -2 -11 -6 -39 -9 -63 -14
-115 -40 -188 -103 -287 -155 -245 -511 -547 -762 -647 -62 -25 -84 -30 -130
-25 -148 13 -412 187 -650 426 -221 223 -286 344 -315 586 -3 28 -8 64 -10 80
-2 17 -7 68 -10 115 -4 47 -9 105 -11 130 -8 105 -17 346 -18 493 l-1 159 65
24 c170 64 298 153 340 234 49 96 201 159 425 176 44 4 82 8 85 11 5 5 315 -5
358 -12z"/>
<path d="M1557 2384 c-1 -2 -26 -6 -55 -9 -170 -19 -369 -123 -489 -255 -154
-170 -225 -351 -225 -575 0 -462 366 -831 828 -836 105 -1 143 5 244 33 292
83 527 337 584 633 4 17 9 41 11 55 7 35 7 187 0 235 -53 353 -330 642 -675
705 -58 10 -216 20 -223 14z m228 -113 c211 -47 403 -198 503 -396 129 -257
92 -573 -94 -798 -253 -307 -703 -361 -1014 -122 -105 81 -171 162 -225 278
-47 100 -66 176 -69 289 -6 155 34 297 117 426 120 184 293 293 532 335 38 7
200 -1 250 -12z"/>
<path d="M1535 2163 c-112 -15 -244 -78 -334 -160 -34 -30 -61 -58 -61 -61 0
-4 142 -7 315 -7 173 0 315 4 315 8 0 4 -28 57 -62 118 l-63 109 -40 -2 c-22
0 -53 -3 -70 -5z"/>
<path d="M1731 2138 c7 -13 43 -77 82 -143 38 -66 79 -136 91 -156 11 -20 46
-80 76 -133 42 -73 57 -93 66 -83 17 19 124 207 124 218 0 18 -62 103 -109
148 -85 83 -204 147 -304 165 -38 7 -38 7 -26 -16z"/>
<path d="M1084 1855 c-75 -115 -102 -333 -59 -481 9 -31 18 -55 20 -53 3 4
160 274 202 349 14 25 43 74 64 110 58 100 63 94 -85 95 -118 0 -130 -1 -142
-20z"/>
<path d="M1518 1849 c-155 -52 -244 -219 -203 -382 53 -208 289 -305 477 -194
136 79 189 257 123 406 -68 151 -238 224 -397 170z"/>
<path d="M2180 1733 c-87 -147 -290 -504 -290 -510 0 -4 59 -7 131 -6 114 1
132 4 144 20 16 21 62 144 70 188 13 64 12 183 -2 250 -21 99 -26 104 -53 58z"/>
<path d="M1180 1438 c-13 -24 -41 -72 -62 -107 -21 -34 -38 -70 -38 -80 0 -26
85 -132 146 -183 68 -56 158 -102 238 -123 33 -8 61 -14 62 -12 4 4 -310 547
-317 547 -3 0 -16 -19 -29 -42z"/>
<path d="M1472 1151 c26 -55 125 -214 138 -221 39 -21 195 11 295 62 78 39
193 133 195 159 0 4 -142 6 -315 6 -174 0 -314 -3 -313 -6z"/>
</g>
</svg>
